<?xml version="1.0" encoding="UTF-8" standalone="no"?>
<svg width="48px" height="48px" viewBox="0 0 48 48" version="1.1" xmlns="http://www.w3.org/2000/svg" xmlns:xlink="http://www.w3.org/1999/xlink" xmlns:sketch="http://www.bohemiancoding.com/sketch/ns">
    <!-- Generator: Sketch 3.2 (9961) - http://www.bohemiancoding.com/sketch -->
    <title>more</title>
    <desc>Created with Sketch.</desc>
    <defs></defs>
    <g id="Components" stroke="none" stroke-width="1" fill="none" fill-rule="evenodd" sketch:type="MSPage">
        <g id="more" sketch:type="MSArtboardGroup">
            <g sketch:type="MSLayerGroup">
                <rect id="shape" opacity="0" fill-opacity="0.2" fill="#FF4081" sketch:type="MSShapeGroup" x="0" y="0" width="48" height="48"></rect>
                <path d="M24,20 C25.1,20 26,19.1 26,18 C26,16.9 25.1,16 24,16 C22.9,16 22,16.9 22,18 C22,19.1 22.9,20 24,20 L24,20 Z M24,22 C22.9,22 22,22.9 22,24 C22,25.1 22.9,26 24,26 C25.1,26 26,25.1 26,24 C26,22.9 25.1,22 24,22 L24,22 Z M24,28 C22.9,28 22,28.9 22,30 C22,31.1 22.9,32 24,32 C25.1,32 26,31.1 26,30 C26,28.9 25.1,28 24,28 L24,28 Z" id="Shape" fill="#000000" sketch:type="MSShapeGroup"></path>
            </g>
        </g>
    </g>
</svg>